<?xml version="1.0" encoding="UTF-8" standalone="no"?>
<!-- Created with Inkscape (http://www.inkscape.org/) -->

<svg
   xmlns:dc="http://purl.org/dc/elements/1.1/"
   xmlns:cc="http://creativecommons.org/ns#"
   xmlns:rdf="http://www.w3.org/1999/02/22-rdf-syntax-ns#"
   xmlns:svg="http://www.w3.org/2000/svg"
   xmlns="http://www.w3.org/2000/svg"
   xmlns:sodipodi="http://sodipodi.sourceforge.net/DTD/sodipodi-0.dtd"
   xmlns:inkscape="http://www.inkscape.org/namespaces/inkscape"
   width="744.09448819"
   height="1052.3622047"
   id="svg2"
   version="1.1"
   inkscape:version="0.48.2 r9819"
   sodipodi:docname="logo.svg">
  <defs
     id="defs4">
    <linearGradient
       id="linearGradient3138">
      <stop
         id="stop3140"
         offset="0"
         style="stop-color:#780000;stop-opacity:1;" />
      <stop
         id="stop3142"
         offset="1"
         style="stop-color:#780000;stop-opacity:0;" />
    </linearGradient>
  </defs>
  <sodipodi:namedview
     id="base"
     pagecolor="#ffffff"
     bordercolor="#666666"
     borderopacity="1.0"
     inkscape:pageopacity="0.0"
     inkscape:pageshadow="2"
     inkscape:zoom="1.1665185"
     inkscape:cx="372.04724"
     inkscape:cy="718.4343"
     inkscape:document-units="px"
     inkscape:current-layer="g3131"
     showgrid="false"
     inkscape:window-width="1280"
     inkscape:window-height="672"
     inkscape:window-x="0"
     inkscape:window-y="0"
     inkscape:window-maximized="1" />
  <metadata
     id="metadata7">
    <rdf:RDF>
      <cc:Work
         rdf:about="">
        <dc:format>image/svg+xml</dc:format>
        <dc:type
           rdf:resource="http://purl.org/dc/dcmitype/StillImage" />
        <dc:title></dc:title>
      </cc:Work>
    </rdf:RDF>
  </metadata>
  <g
     inkscape:label="Layer 1"
     inkscape:groupmode="layer"
     id="layer1">
    <g
       id="g3202"
       inkscape:export-filename="/Users/andersonbraz/Documents/workspace/brazoft/maven/virtuoze/showcase/src/main/webapp/images/logo.png"
       inkscape:export-xdpi="90"
       inkscape:export-ydpi="90">
      <rect
         ry="0"
         y="275.46133"
         x="268.55508"
         height="64"
         width="371.08289"
         id="rect3071"
         style="fill:#3d3d3d;fill-opacity:1;stroke:none" />
      <g
         transform="matrix(1.235394,0,0,1.235394,-74.74354,-72.374528)"
         id="text3455"
         style="font-size:42.93278122px;font-style:normal;font-variant:normal;font-weight:normal;font-stretch:normal;line-height:125%;letter-spacing:0px;word-spacing:0px;fill:#ffffff;fill-opacity:1;stroke:none;font-family:HOMIGOS;-inkscape-font-specification:HOMIGOS">
        <path
           inkscape:connector-curvature="0"
           id="path3179"
           d="m 318.44959,290.28824 0,25.75966 -8.58656,8.58656 -25.75967,0 0,-34.34622 15.02648,0 0,8.58655 -6.43992,0 0,17.17311 13.60969,0 3.56342,-3.56342 0,-13.60969 -6.43992,0 0,-8.58655 15.02648,0 m -11.29132,4.8514 6.43991,0 0,18.93336 -5.71006,5.71006 -18.93335,0 0,-24.64342 6.43991,0 0,-1.07332 -7.51323,0 0,26.79006 20.39307,0 6.39698,-6.39699 0,-20.436 -7.51323,0 0,1.11625" />
        <path
           inkscape:connector-curvature="0"
           id="path3181"
           d="m 339.93275,298.87479 -4.29328,0 0,17.17311 4.29328,0 0,8.58656 -17.17311,0 0,-8.58656 4.29327,0 0,-17.17311 -4.29327,0 0,-8.58655 17.17311,0 0,8.58655 m -13.43796,22.02452 9.65987,0 0,-1.11625 -4.29327,0 0,-24.64342 4.29327,0 0,-1.07332 -9.65987,0 0,1.07332 4.29328,0 0,24.64342 -4.29328,0 0,1.11625" />
        <path
           inkscape:connector-curvature="0"
           id="path3183"
           d="m 372.94806,316.0479 5.62419,0 0,8.58656 -10.4756,0 -8.93001,-12.87983 -6.35406,0 0,4.29327 4.29328,0 0,8.58656 -12.87983,0 0,-21.46639 4.29328,0 0,-4.29328 -4.29328,0 0,-8.58655 34.34622,0 0,21.46639 -8.58655,0 2.96236,4.29327 m 1.84611,-21.98158 -26.79006,-0.0429 0,1.11625 4.29328,0 0,11.76358 -4.29328,0 0,0 0,13.95316 0,0 5.3666,0 0,-1.07332 -4.29328,0 0,-11.76359 12.27878,0 8.88708,12.83691 4.55088,0 0,-1.07332 -3.99275,0 -8.1143,-11.76359 12.10705,0 0,-13.95315 m -4.80847,4.80847 -12.87984,0 0,4.29328 12.87984,0 0,-4.29328 m 3.73515,8.07136 -20.35014,-0.0429 0,-11.76358 20.35014,0 0,11.80651" />
        <path
           inkscape:connector-curvature="0"
           id="path3185"
           d="m 417.22853,290.28824 0,12.87983 -8.58656,0 0,-4.29328 -4.29328,0 0,17.17311 4.29328,0 0,8.58656 -17.17311,0 0,-8.58656 4.29328,0 0,-17.17311 -4.29328,0 0,4.29328 -8.58656,0 0,-12.87983 34.34623,0 m -29.49482,9.14468 0,-4.29328 11.76358,0 0,24.64342 -4.25035,0 0,1.07332 9.65988,0 0,-1.07332 -4.29328,0 0,-24.64342 11.76358,0 0,4.29328 1.07332,0 0,-5.40953 -26.79005,0.0429 0,5.3666 1.07332,0" />
        <path
           inkscape:connector-curvature="0"
           id="path3187"
           d="m 455.8848,324.63446 -34.34623,0 0,-34.34622 15.02648,0 0,8.58655 -6.43992,0 0,17.17311 17.17311,0 0,-17.17311 -6.43991,0 0,-8.58655 15.02647,0 0,34.34622 m -11.29132,-29.53775 6.43991,0 0,24.72928 -24.68634,0 0,-24.72928 6.43991,0 0,-1.07332 -7.51323,0 0,26.87592 26.83298,0 0,-26.87592 -7.51323,0 0,1.07332" />
        <path
           inkscape:connector-curvature="0"
           id="path3189"
           d="m 460.19484,324.63446 0,-34.34622 34.34622,0 0,34.34622 -34.34622,0 m 25.75967,-8.58656 0,-17.17311 -17.17311,0 0,17.17311 17.17311,0 m -20.90827,3.77809 0,-24.68635 24.64342,0 0,24.68635 -24.64342,0 m 25.71674,1.07332 0,-26.87592 -26.83299,0 0,26.87592 26.83299,0" />
        <path
           inkscape:connector-curvature="0"
           id="path3191"
           d="m 498.85112,290.28824 34.34622,0 0,8.58655 -4.29327,0 0,4.29328 4.29327,0 0,8.58656 -25.75966,0 0,4.29327 25.75966,0 0,8.58656 -34.34622,0 0,-21.46639 21.46639,0 0,-4.29328 -21.46639,0 0,-8.58655 m 3.77808,4.8514 21.42346,0 0,11.76358 -21.42346,0.0429 0,13.91023 0,0 26.79006,0 0,-1.07332 -25.71674,0 0,-11.76359 25.71674,0 0,-1.11625 -4.29328,0 0,-11.76358 4.29328,0 0,-1.11625 -26.79006,0.0429 0,1.07332" />
        <path
           inkscape:connector-curvature="0"
           id="path3193"
           d="m 567.00221,300.33451 1.07332,0 0,-6.31112 -26.79006,0 0,1.07332 4.29328,0 0,11.80651 -4.29328,0 0,13.95316 26.79006,0 0,-9.65988 -1.07332,0 0,8.58656 -24.64342,0 0,-11.80652 4.29328,0.0429 8.54362,0 0,-1.11625 -8.54362,0 0,-11.80651 20.35014,0.0429 0,5.19487 m 4.8514,7.12684 0,17.17311 -34.34622,0 0,-21.46639 4.29327,0 0,-4.29328 -4.29327,0 0,-8.58655 34.34622,0 0,12.87983 -8.58656,0 0,-4.29328 -12.87983,0 0,4.29328 8.58656,0 0,8.58656 -12.87984,0 0,4.29327 17.17311,0 0,-8.58655 8.58656,0" />
      </g>
    </g>
    <rect
       style="fill:#ffffff;fill-opacity:1;stroke:none"
       id="rect3078"
       width="0"
       height="0"
       x="580.16528"
       y="280.95724"
       ry="0" />
    <g
       id="g3197"
       transform="matrix(1,0,0,0.99674489,0,1.1039966)"
       inkscape:export-filename="/Users/andersonbraz/Documents/workspace/brazoft/maven/virtuoze/showcase/src/main/webapp/images/favico.ico.png"
       inkscape:export-xdpi="90"
       inkscape:export-ydpi="90">
      <rect
         style="fill:#3d3d3d;fill-opacity:1;stroke:none"
         id="rect3151"
         width="64"
         height="64.209007"
         x="201.78716"
         y="274.94919"
         ry="0" />
      <g
         transform="translate(-2.0000048,-1.3135986e-5)"
         id="text3153"
         style="font-size:54.09410095px;font-style:normal;font-variant:normal;font-weight:normal;font-stretch:normal;line-height:125%;letter-spacing:0px;word-spacing:0px;fill:#ffffff;fill-opacity:1;stroke:none;font-family:HOMIGOS;-inkscape-font-specification:HOMIGOS">
        <path
           inkscape:connector-curvature="0"
           id="path3173"
           d="m 257.4248,285.41606 0,32.45647 -10.81882,10.81882 -32.45646,0 0,-43.27529 18.93294,0 0,10.81882 -8.11412,0 0,21.63765 17.14783,0 4.48981,-4.48982 0,-17.14783 -8.11411,0 0,-10.81882 18.93293,0 m -14.22675,6.11264 8.11412,0 0,23.8555 -7.19452,7.19451 -23.8555,0 0,-31.05001 8.11412,0 0,-1.35235 -9.46647,0 0,33.75471 25.6947,0 8.06002,-8.06002 0,-25.74879 -9.46647,0 0,1.40645" />
      </g>
    </g>
    <g
       id="g3131">
      <rect
         inkscape:export-ydpi="90"
         inkscape:export-xdpi="90"
         inkscape:export-filename="/Users/andersonbraz/Documents/workspace/brazoft/maven/virtuoze/showcase/src/main/webapp/images/64/z.png"
         ry="0"
         y="344.61493"
         x="201.78716"
         height="64"
         width="64"
         id="rect3122"
         style="fill:#3d3d3d;fill-opacity:1;stroke:none" />
      <text
         inkscape:export-ydpi="90"
         inkscape:export-xdpi="90"
         inkscape:export-filename="/Users/andersonbraz/Documents/workspace/brazoft/maven/virtuoze/showcase/src/main/webapp/images/64/z.png"
         sodipodi:linespacing="125%"
         id="text3116"
         y="398.39667"
         x="212.00542"
         style="font-size:54.45434189px;font-style:normal;font-variant:normal;font-weight:bold;font-stretch:normal;line-height:125%;letter-spacing:0px;word-spacing:0px;fill:#ffffff;fill-opacity:1;stroke:none;font-family:HOMIGOS;-inkscape-font-specification:HOMIGOS Bold"
         xml:space="preserve"><tspan
           y="398.39667"
           x="212.00542"
           id="tspan3118"
           sodipodi:role="line">z</tspan></text>
    </g>
  </g>
</svg>
