<?xml version="1.0" encoding="UTF-8" standalone="no"?>
<!-- Created with Inkscape (http://www.inkscape.org/) -->

<svg
   xmlns:osb="http://www.openswatchbook.org/uri/2009/osb"
   xmlns:dc="http://purl.org/dc/elements/1.1/"
   xmlns:cc="http://creativecommons.org/ns#"
   xmlns:rdf="http://www.w3.org/1999/02/22-rdf-syntax-ns#"
   xmlns:svg="http://www.w3.org/2000/svg"
   xmlns="http://www.w3.org/2000/svg"
   xmlns:xlink="http://www.w3.org/1999/xlink"
   xmlns:sodipodi="http://sodipodi.sourceforge.net/DTD/sodipodi-0.dtd"
   xmlns:inkscape="http://www.inkscape.org/namespaces/inkscape"
   width="744.09448819"
   height="1052.3622047"
   id="svg2"
   version="1.1"
   inkscape:version="0.48.5 r10040"
   sodipodi:docname="logo.svg">
  <defs
     id="defs4">
    <linearGradient
       id="linearGradient4851">
      <stop
         style="stop-color:#808080;stop-opacity:1;"
         offset="0"
         id="stop4853" />
      <stop
         style="stop-color:#808080;stop-opacity:0;"
         offset="1"
         id="stop4855" />
    </linearGradient>
    <linearGradient
       id="linearGradient4822">
      <stop
         style="stop-color:#404c51;stop-opacity:1;"
         offset="0"
         id="stop4824" />
      <stop
         style="stop-color:#404c51;stop-opacity:0;"
         offset="1"
         id="stop4826" />
    </linearGradient>
    <linearGradient
       id="linearGradient3856"
       osb:paint="solid">
      <stop
         style="stop-color:#26a9e0;stop-opacity:1;"
         offset="0"
         id="stop3858" />
    </linearGradient>
    <linearGradient
       inkscape:collect="always"
       xlink:href="#linearGradient4822"
       id="linearGradient4828"
       x1="231.76353"
       y1="591.85095"
       x2="230.01251"
       y2="781.8371"
       gradientUnits="userSpaceOnUse" />
    <linearGradient
       inkscape:collect="always"
       xlink:href="#linearGradient4822"
       id="linearGradient4830"
       gradientUnits="userSpaceOnUse"
       x1="231.76353"
       y1="591.85095"
       x2="230.01251"
       y2="781.8371" />
    <linearGradient
       inkscape:collect="always"
       xlink:href="#linearGradient4822"
       id="linearGradient4832"
       gradientUnits="userSpaceOnUse"
       x1="231.76353"
       y1="591.85095"
       x2="230.01251"
       y2="781.8371" />
    <linearGradient
       inkscape:collect="always"
       xlink:href="#linearGradient4822"
       id="linearGradient4834"
       gradientUnits="userSpaceOnUse"
       x1="231.76353"
       y1="591.85095"
       x2="230.01251"
       y2="781.8371" />
    <linearGradient
       inkscape:collect="always"
       xlink:href="#linearGradient4822"
       id="linearGradient4836"
       gradientUnits="userSpaceOnUse"
       x1="231.76353"
       y1="591.85095"
       x2="230.01251"
       y2="781.8371" />
    <linearGradient
       inkscape:collect="always"
       xlink:href="#linearGradient4822"
       id="linearGradient4838"
       gradientUnits="userSpaceOnUse"
       x1="231.76353"
       y1="591.85095"
       x2="230.01251"
       y2="781.8371" />
    <linearGradient
       inkscape:collect="always"
       xlink:href="#linearGradient4822"
       id="linearGradient4840"
       gradientUnits="userSpaceOnUse"
       x1="231.76353"
       y1="591.85095"
       x2="230.01251"
       y2="781.8371" />
    <linearGradient
       inkscape:collect="always"
       xlink:href="#linearGradient4822"
       id="linearGradient4842"
       gradientUnits="userSpaceOnUse"
       x1="231.76353"
       y1="591.85095"
       x2="230.01251"
       y2="781.8371" />
    <linearGradient
       inkscape:collect="always"
       xlink:href="#linearGradient4822"
       id="linearGradient4844"
       gradientUnits="userSpaceOnUse"
       x1="231.76353"
       y1="591.85095"
       x2="230.01251"
       y2="781.8371" />
    <linearGradient
       inkscape:collect="always"
       xlink:href="#linearGradient4822"
       id="linearGradient4846"
       gradientUnits="userSpaceOnUse"
       x1="231.76353"
       y1="591.85095"
       x2="230.01251"
       y2="781.8371" />
    <linearGradient
       inkscape:collect="always"
       xlink:href="#linearGradient4822"
       id="linearGradient4848"
       gradientUnits="userSpaceOnUse"
       x1="231.76353"
       y1="591.85095"
       x2="230.01251"
       y2="781.8371" />
    <linearGradient
       inkscape:collect="always"
       xlink:href="#linearGradient4822"
       id="linearGradient4850"
       gradientUnits="userSpaceOnUse"
       x1="231.76353"
       y1="591.85095"
       x2="230.01251"
       y2="781.8371" />
    <linearGradient
       inkscape:collect="always"
       xlink:href="#linearGradient4822"
       id="linearGradient4852"
       gradientUnits="userSpaceOnUse"
       x1="231.76353"
       y1="591.85095"
       x2="230.01251"
       y2="781.8371" />
    <linearGradient
       inkscape:collect="always"
       xlink:href="#linearGradient4822"
       id="linearGradient4866"
       gradientUnits="userSpaceOnUse"
       x1="231.76353"
       y1="591.85095"
       x2="230.01251"
       y2="781.8371" />
    <linearGradient
       inkscape:collect="always"
       xlink:href="#linearGradient4822"
       id="linearGradient4868"
       gradientUnits="userSpaceOnUse"
       x1="231.76353"
       y1="591.85095"
       x2="230.01251"
       y2="781.8371" />
    <linearGradient
       inkscape:collect="always"
       xlink:href="#linearGradient4822"
       id="linearGradient4870"
       gradientUnits="userSpaceOnUse"
       x1="231.76353"
       y1="591.85095"
       x2="230.01251"
       y2="781.8371" />
    <linearGradient
       inkscape:collect="always"
       xlink:href="#linearGradient4822"
       id="linearGradient4872"
       gradientUnits="userSpaceOnUse"
       x1="231.76353"
       y1="591.85095"
       x2="230.01251"
       y2="781.8371" />
    <linearGradient
       inkscape:collect="always"
       xlink:href="#linearGradient4822"
       id="linearGradient4874"
       gradientUnits="userSpaceOnUse"
       x1="231.76353"
       y1="591.85095"
       x2="230.01251"
       y2="781.8371" />
    <linearGradient
       inkscape:collect="always"
       xlink:href="#linearGradient4822"
       id="linearGradient4876"
       gradientUnits="userSpaceOnUse"
       x1="231.76353"
       y1="591.85095"
       x2="230.01251"
       y2="781.8371" />
    <linearGradient
       inkscape:collect="always"
       xlink:href="#linearGradient4822"
       id="linearGradient4878"
       gradientUnits="userSpaceOnUse"
       x1="231.76353"
       y1="591.85095"
       x2="230.01251"
       y2="781.8371" />
    <linearGradient
       inkscape:collect="always"
       xlink:href="#linearGradient4822"
       id="linearGradient4880"
       gradientUnits="userSpaceOnUse"
       x1="231.76353"
       y1="591.85095"
       x2="230.01251"
       y2="781.8371" />
    <linearGradient
       inkscape:collect="always"
       xlink:href="#linearGradient4822"
       id="linearGradient4882"
       gradientUnits="userSpaceOnUse"
       x1="231.76353"
       y1="591.85095"
       x2="230.01251"
       y2="781.8371" />
    <linearGradient
       inkscape:collect="always"
       xlink:href="#linearGradient4822"
       id="linearGradient4884"
       gradientUnits="userSpaceOnUse"
       x1="231.76353"
       y1="591.85095"
       x2="230.01251"
       y2="781.8371" />
    <linearGradient
       inkscape:collect="always"
       xlink:href="#linearGradient4822"
       id="linearGradient4886"
       gradientUnits="userSpaceOnUse"
       x1="231.76353"
       y1="591.85095"
       x2="230.01251"
       y2="781.8371" />
    <linearGradient
       inkscape:collect="always"
       xlink:href="#linearGradient4822"
       id="linearGradient4889"
       gradientUnits="userSpaceOnUse"
       x1="231.76353"
       y1="591.85095"
       x2="230.01251"
       y2="781.8371"
       gradientTransform="matrix(0.8687993,0,0,0.8687993,89.364358,215.84427)" />
    <linearGradient
       inkscape:collect="always"
       xlink:href="#linearGradient4822"
       id="linearGradient4892"
       gradientUnits="userSpaceOnUse"
       x1="231.76353"
       y1="591.85095"
       x2="230.01251"
       y2="781.8371"
       gradientTransform="matrix(0.8687993,0,0,0.8687993,89.364358,215.84427)" />
    <linearGradient
       inkscape:collect="always"
       xlink:href="#linearGradient4822"
       id="linearGradient4895"
       gradientUnits="userSpaceOnUse"
       x1="231.76353"
       y1="591.85095"
       x2="230.01251"
       y2="781.8371"
       gradientTransform="matrix(0.8687993,0,0,0.8687993,89.364358,215.84427)" />
    <linearGradient
       inkscape:collect="always"
       xlink:href="#linearGradient4822"
       id="linearGradient4898"
       gradientUnits="userSpaceOnUse"
       x1="231.76353"
       y1="591.85095"
       x2="230.01251"
       y2="781.8371"
       gradientTransform="matrix(0.8687993,0,0,0.8687993,89.364358,215.84427)" />
    <linearGradient
       inkscape:collect="always"
       xlink:href="#linearGradient4822"
       id="linearGradient4901"
       gradientUnits="userSpaceOnUse"
       x1="231.76353"
       y1="591.85095"
       x2="230.01251"
       y2="781.8371"
       gradientTransform="matrix(0.8687993,0,0,0.8687993,89.364358,215.84427)" />
    <linearGradient
       inkscape:collect="always"
       xlink:href="#linearGradient4822"
       id="linearGradient4904"
       gradientUnits="userSpaceOnUse"
       x1="231.76353"
       y1="591.85095"
       x2="230.01251"
       y2="781.8371"
       gradientTransform="matrix(0.8687993,0,0,0.8687993,89.364358,215.84427)" />
    <linearGradient
       inkscape:collect="always"
       xlink:href="#linearGradient4822"
       id="linearGradient4907"
       gradientUnits="userSpaceOnUse"
       x1="231.76353"
       y1="591.85095"
       x2="230.01251"
       y2="781.8371"
       gradientTransform="matrix(0.8687993,0,0,0.8687993,89.364358,215.84427)" />
    <linearGradient
       inkscape:collect="always"
       xlink:href="#linearGradient4822"
       id="linearGradient4910"
       gradientUnits="userSpaceOnUse"
       x1="231.76353"
       y1="591.85095"
       x2="230.01251"
       y2="781.8371"
       gradientTransform="matrix(0.8687993,0,0,0.8687993,89.364358,215.84427)" />
    <linearGradient
       inkscape:collect="always"
       xlink:href="#linearGradient4822"
       id="linearGradient4913"
       gradientUnits="userSpaceOnUse"
       x1="231.76353"
       y1="591.85095"
       x2="230.01251"
       y2="781.8371"
       gradientTransform="matrix(0.8687993,0,0,0.8687993,89.364358,215.84427)" />
    <linearGradient
       inkscape:collect="always"
       xlink:href="#linearGradient4822"
       id="linearGradient4916"
       gradientUnits="userSpaceOnUse"
       x1="231.76353"
       y1="591.85095"
       x2="230.01251"
       y2="781.8371"
       gradientTransform="matrix(0.8687993,0,0,0.8687993,89.364358,215.84427)" />
    <linearGradient
       inkscape:collect="always"
       xlink:href="#linearGradient4822"
       id="linearGradient4920"
       gradientUnits="userSpaceOnUse"
       gradientTransform="matrix(0.8687993,0,0,0.8687993,89.364358,215.84427)"
       x1="231.76353"
       y1="591.85095"
       x2="230.01251"
       y2="781.8371" />
    <clipPath
       clipPathUnits="userSpaceOnUse"
       id="clipPath4763">
      <path
         id="path4765"
         d="m 152.48096,65.006618 c -12.68546,0.0082 -20.45673,4.24031 -25.09375,13.6875 -2.21862,4.52008 -2.36816,6.00436 -2.71875,29.593752 -0.38553,25.94038 -0.19625,28.5225 2.375,31.09375 7.75619,4.83626 14.16562,-1.05324 8.5625,10.0625 -1.37269,2.70571 -2.35589,6.19989 -2.5,7.75 -0.99052,10.65407 9.55982,5.36271 10.65625,6.78125 1.60758,2.36284 1.35599,8.0972 1.375,9.96875 0.0164,4.93159 0.60672,6.42763 2.96875,7.40625 6.65361,0.49092 10.41857,1.4089 10.1875,-5.3125 -0.08,-5.74391 1.78767,-5.74509 1.81251,0.375 -0.20709,5.235 3.59321,6.15232 7.96949,5.58777 3.3705,-0.47307 5.03051,-2.91283 5.03051,-7.33777 0,-3.37601 -0.21855,-8.91472 1.25,-11 6.46917,-0.84746 10.45645,-0.62433 9.34375,-7.84375 -0.35019,-2.18987 -1.54366,-5.6929 -2.625,-7.8125 -2.99222,-8.05528 7.84226,-4.73877 12.40625,-9.03125 1.84654,-1.84654 2,-3.33078 2,-19.375 0,-12.72858 -0.33441,-17.64771 -1.25,-18.34375 -0.6875,-0.52264 -3.39342,-1.724555 -6,-2.687495 -5.9491,-2.197745 -8.01302,-4.860215 -10.65625,-13.562507 -2.46601,-8.11878 -7.09887,-14.65122 -12.625,-17.78125 -3.23987,-1.83508 -5.50304,-2.22275 -12.46875,-2.21875 z"
         style="color:#000000;fill:#404c51;fill-opacity:1;fill-rule:nonzero;stroke-width:1;stroke-linecap:butt;stroke-linejoin:miter;stroke-miterlimit:4;stroke-opacity:1;stroke-dasharray:none;stroke-dashoffset:0;marker:none;visibility:visible;display:inline;overflow:visible;enable-background:accumulate"
         inkscape:connector-curvature="0" />
    </clipPath>
    <radialGradient
       inkscape:collect="always"
       xlink:href="#linearGradient4851"
       id="radialGradient4857"
       cx="205.00775"
       cy="54.701702"
       fx="205.00775"
       fy="54.701702"
       r="35.203125"
       gradientTransform="matrix(-1.0144428,0.94577802,-0.55959647,-0.60022392,575.37099,-88.450165)"
       gradientUnits="userSpaceOnUse" />
  </defs>
  <sodipodi:namedview
     id="base"
     pagecolor="#ffffff"
     bordercolor="#666666"
     borderopacity="1.0"
     inkscape:pageopacity="0.0"
     inkscape:pageshadow="2"
     inkscape:zoom="1.2579048"
     inkscape:cx="372.04724"
     inkscape:cy="948.52386"
     inkscape:document-units="px"
     inkscape:current-layer="layer1"
     showgrid="false"
     inkscape:window-width="1366"
     inkscape:window-height="705"
     inkscape:window-x="-8"
     inkscape:window-y="-8"
     inkscape:window-maximized="1"
     showguides="true"
     inkscape:guide-bbox="true" />
  <metadata
     id="metadata7">
    <rdf:RDF>
      <cc:Work
         rdf:about="">
        <dc:format>image/svg+xml</dc:format>
        <dc:type
           rdf:resource="http://purl.org/dc/dcmitype/StillImage" />
        <dc:title />
      </cc:Work>
    </rdf:RDF>
  </metadata>
  <g
     inkscape:label="Layer 1"
     inkscape:groupmode="layer"
     id="layer1">
    <g
       id="g4936"
       inkscape:export-filename="C:\Users\braz\Documents\brazoft\hitz-appz\virtuozo-showcase\src\main\resources\hitz\virtuozo\showcase\images\64\logo.png"
       inkscape:export-xdpi="48.439999"
       inkscape:export-ydpi="48.439999"
       transform="translate(-187.61356,-31.003936)">
      <path
         transform="matrix(1.173212,0,0,1.1915433,-98.77677,-23.356385)"
         d="m 377.36733,122.19846 c 0,27.55891 -22.68998,49.89982 -50.67949,49.89982 -27.98952,0 -50.6795,-22.34091 -50.6795,-49.89982 0,-27.558903 22.68998,-49.899811 50.6795,-49.899811 27.98951,0 50.67949,22.340908 50.67949,49.899811 z"
         sodipodi:ry="49.899815"
         sodipodi:rx="50.679497"
         sodipodi:cy="122.19846"
         sodipodi:cx="326.68784"
         id="path4916"
         style="color:#000000;fill:#404c51;fill-opacity:1;fill-rule:nonzero;stroke:none;stroke-width:1;marker:none;visibility:visible;display:inline;overflow:visible;enable-background:accumulate"
         sodipodi:type="arc" />
      <path
         inkscape:connector-curvature="0"
         id="path4912"
         d="m 334.54864,122.73264 c -0.10482,-0.22368 -0.15547,-0.53255 -0.28231,-0.71812 -0.13757,-0.17716 -0.42261,-0.23791 -0.81557,-0.24978 -0.37595,-0.0114 -0.84421,0.0329 -1.38019,0.0936 0.82579,0.30035 1.63397,0.61343 2.47807,0.87423 z"
         style="color:#000000;fill:#ecf8fc;fill-opacity:1;fill-rule:nonzero;stroke:#808080;stroke-width:1.00144649;stroke-linecap:butt;stroke-linejoin:miter;stroke-miterlimit:4;stroke-opacity:1;stroke-dasharray:none;stroke-dashoffset:0;marker:none;visibility:visible;display:inline;overflow:visible;enable-background:accumulate" />
      <path
         id="path4874"
         d="m 284.51295,68.248266 c -29.8241,0 -54.01563,24.048207 -54.01563,53.734114 0,19.92798 10.91727,37.30158 27.10192,46.58413 -0.12583,-0.79141 -0.19824,-1.6326 -0.094,-2.74759 0.0723,-0.77438 0.34715,-2.0302 0.7842,-3.43448 0.43705,-1.40429 1.03631,-2.95705 1.72523,-4.30872 1.40607,-2.7765 2.06693,-4.50322 2.13303,-5.58885 0.033,-0.54282 -0.0745,-0.90402 -0.31368,-1.18646 -0.23919,-0.28244 -0.62825,-0.46293 -1.09788,-0.59323 -0.93927,-0.26058 -2.27952,-0.32308 -3.88963,-0.62445 -0.80505,-0.15069 -1.69351,-0.36367 -2.60354,-0.6869 -0.91003,-0.32323 -1.84994,-0.76979 -2.82312,-1.3738 -0.64523,-0.64224 -1.13095,-1.27116 -1.50566,-2.27925 -0.3747,-1.00808 -0.62331,-2.39316 -0.7842,-4.49605 -0.32175,-4.20579 -0.2876,-11.33237 -0.0941,-24.29119 0.0218,-1.4606 0.0734,-1.41944 0.0941,-2.71637 0.15743,-9.81543 0.30048,-15.472432 0.65873,-19.201906 0.17912,-1.864736 0.40112,-3.251374 0.72146,-4.43361 0.32035,-1.182236 0.73248,-2.156868 1.25472,-3.215929 0.58182,-1.179864 1.22983,-2.290627 1.91345,-3.309596 0.68363,-1.018969 1.40335,-1.948091 2.19575,-2.810035 0.7924,-0.861944 1.63265,-1.63291 2.54081,-2.341696 0.90816,-0.708786 1.88631,-1.345082 2.91722,-1.904579 1.03092,-0.559497 2.133,-1.053387 3.29363,-1.467463 1.16064,-0.414075 2.37274,-0.757822 3.67006,-1.030346 2.59465,-0.545048 5.47422,-0.809739 8.65755,-0.811788 3.496,-0.002 5.80535,0.08038 7.65379,0.405894 0.92422,0.162759 1.72989,0.392816 2.50943,0.686898 0.77956,0.294082 1.53957,0.665646 2.3526,1.124014 1.38675,0.781822 2.72903,1.787748 3.98373,2.966147 1.2547,1.1784 2.43052,2.540666 3.51321,4.05894 1.0827,1.518274 2.07786,3.194171 2.94859,4.995617 0.87074,1.801446 1.60831,3.717044 2.22713,5.74496 0.66331,2.173666 1.28419,3.957573 1.94481,5.463957 0.66064,1.506391 1.36638,2.733541 2.16439,3.746711 0.79801,1.01318 1.68497,1.83501 2.76038,2.52904 1.07543,0.69403 2.334,1.26195 3.82689,1.81091 2.61643,0.96209 5.33256,2.16296 6.02265,2.68514 0.21992,0.16642 0.40932,0.59246 0.56463,1.31135 0.15531,0.71889 0.27653,1.73062 0.37641,3.05982 0.21762,2.89636 0.31368,7.32537 0.31368,13.9565 0,8.01508 -0.0435,12.38174 -0.31368,14.98686 -0.1351,1.30255 -0.32089,2.16109 -0.59599,2.81003 -0.27509,0.64894 -0.6345,1.0999 -1.09788,1.56113 -0.57264,0.53609 -1.24624,0.94457 -1.97618,1.28013 -0.72994,0.33555 -1.51278,0.60268 -2.32123,0.81179 -1.61687,0.4182 -3.3099,0.64226 -4.76793,0.99912 -0.72901,0.17843 -1.40508,0.38146 -1.97618,0.65567 -0.57109,0.27421 -1.0458,0.6175 -1.38019,1.06157 -0.33438,0.44407 -0.51439,0.99802 -0.53326,1.68602 -0.0189,0.68801 0.12645,1.52301 0.50189,2.52904 0.54271,1.05887 1.12066,2.4584 1.59977,3.8716 0.47911,1.4132 0.85939,2.84007 1.03514,3.93405 0.27924,1.80328 0.22551,3.14594 -0.0941,4.1526 -0.1598,0.50334 -0.36461,0.92611 -0.65872,1.28013 -0.29412,0.35402 -0.64835,0.6363 -1.06651,0.87423 -0.83634,0.47588 -1.92861,0.75703 -3.19954,0.96791 -1.27092,0.21087 -2.73674,0.35033 -4.36014,0.562 -0.28202,0.39861 -0.45592,1.01167 -0.62736,1.62358 23.14216,-6.06788 40.21373,-26.98261 40.21373,-51.9232 0,-29.685907 -24.16016,-53.734114 -53.98427,-53.734114 z"
         style="color:#000000;fill:#ffffff;fill-opacity:1;fill-rule:nonzero;stroke:none;stroke-width:1;marker:none;visibility:visible;display:inline;overflow:visible;enable-background:accumulate"
         inkscape:connector-curvature="0" />
      <path
         inkscape:connector-curvature="0"
         id="path4745"
         style="color:#000000;fill:#ffffff;fill-opacity:1;fill-rule:nonzero;stroke-width:1;stroke-linecap:butt;stroke-linejoin:miter;stroke-miterlimit:4;stroke-opacity:1;stroke-dasharray:none;stroke-dashoffset:0;marker:none;visibility:visible;display:inline;overflow:visible;enable-background:accumulate"
         d="m 264.11647,157.32031 c 0.84081,2.66915 3.17927,10.60314 0.40778,11.77092 -7.78307,1.70222 -3.83877,-10.44853 -0.40778,-11.77092 z m 40.99793,9.21067 c -0.25908,2.22723 -0.79134,2.65392 -3.41911,2.65392 -4.19528,-0.80047 -1.7682,-9.66171 -0.37642,-12.02071 2.45767,1.28177 4.00051,6.81514 3.79553,9.36679 z m 3.85826,-39.96494 c 0.92812,0.014 2.02184,0.19738 3.35637,0.53078 2.37726,0.59389 2.44711,0.85789 2.16439,8.836 l -0.28231,8.21155 -29.89367,0.24978 -29.92504,0.281 0.31368,-8.77355 0.28231,-8.74233 4.0151,0 c 1.61584,0 2.57085,10e-4 3.16817,0.281 l 0,9.67901 4.26604,0 0,-9.74145 c 0.81015,-0.49832 1.85008,-0.62655 3.04269,-0.24979 0.14965,0.0473 0.27732,0.12959 0.40778,0.18734 l 0,9.8039 2.00755,0 2.2585,0 0,-9.71023 c 1.18342,-0.83311 3.06846,-0.93284 6.05401,-0.59323 0.60246,0.0685 1.0834,0.14906 1.4743,0.281 l 0,10.02246 4.23467,0 0,-9.61656 c 0.29613,-0.1565 0.63589,-0.29832 1.06651,-0.4059 1.31348,-0.32816 3.68491,-0.46128 5.26982,-0.281 0.64728,0.0736 1.16269,0.16178 1.5684,0.31222 l 0,9.99124 4.26604,0 0,-9.27312 c 0.88627,-0.88496 2.07989,-1.17093 3.51321,-0.71812 0.35881,0.11336 0.65442,0.28086 0.90968,0.46834 l 0,9.5229 4.26604,0 0,-10.0849 c 0.58298,-0.31734 1.30948,-0.48163 2.19576,-0.46834 z" />
    </g>
    <path
       style="fill:#000000"
       d=""
       id="path3332"
       inkscape:connector-curvature="0" />
  </g>
</svg>
